<?xml version="1.0" standalone="no"?>
<!DOCTYPE svg PUBLIC "-//W3C//DTD SVG 20010904//EN"
 "http://www.w3.org/TR/2001/REC-SVG-20010904/DTD/svg10.dtd">
<svg version="1.0" xmlns="http://www.w3.org/2000/svg"
 width="32.000000pt" height="32.000000pt" viewBox="0 0 32.000000 32.000000"
 preserveAspectRatio="xMidYMid meet">

<g transform="translate(0.000000,32.000000) scale(0.100000,-0.100000)"
fill="#000000" stroke="none">
<path d="M223 283 c20 -2 37 -8 37 -12 0 -4 -18 -24 -39 -45 -33 -32 -42 -36
-59 -27 -72 38 -152 -35 -121 -111 6 -16 25 -36 41 -44 76 -39 157 43 117 118
-9 17 -5 26 27 59 21 21 41 39 45 39 4 0 10 -17 12 -37 3 -31 4 -29 5 15 l2
52 -52 -2 c-44 -1 -46 -2 -15 -5z m-70 -94 c24 -11 47 -47 47 -73 0 -7 -9 -25
-21 -40 -26 -33 -86 -37 -113 -7 -28 30 -24 80 8 108 30 26 44 28 79 12z"/>
</g>
</svg>
