<?xml version="1.0" standalone="no"?>
<!DOCTYPE svg PUBLIC "-//W3C//DTD SVG 20010904//EN"
 "http://www.w3.org/TR/2001/REC-SVG-20010904/DTD/svg10.dtd">
<svg version="1.0" xmlns="http://www.w3.org/2000/svg"
 width="32.000000pt" height="32.000000pt" viewBox="0 0 32.000000 32.000000"
 preserveAspectRatio="xMidYMid meet">

<g transform="translate(0.000000,32.000000) scale(0.100000,-0.100000)"
fill="#000000" stroke="none">
<path d="M102 290 c-12 -11 -25 -32 -28 -46 -9 -36 19 -92 51 -100 19 -5 25
-13 25 -34 0 -25 -4 -29 -32 -33 l-33 -4 33 -1 c27 -2 32 -6 32 -27 0 -14 5
-25 10 -25 6 0 10 11 10 24 0 20 6 25 33 29 l32 4 -32 1 c-29 2 -33 5 -33 31
0 23 6 30 25 35 32 8 60 64 51 100 -15 62 -98 88 -144 46z m97 0 c31 -16 45
-64 29 -97 -40 -84 -174 -29 -138 58 19 46 66 63 109 39z"/>
</g>
</svg>
